<svg xmlns="http://www.w3.org/2000/svg" width="26.349" height="26.349" viewBox="0 0 26.349 26.349"><g transform="translate(0 0)"><path d="M23.914,7.446A5.505,5.505,0,0,1,29.4,12.935V23.914A5.505,5.505,0,0,1,23.914,29.4H12.935a5.505,5.505,0,0,1-5.489-5.489V12.935a5.505,5.505,0,0,1,5.489-5.489H23.914m0-2.2H12.935A7.708,7.708,0,0,0,5.25,12.935V23.914A7.708,7.708,0,0,0,12.935,31.6H23.914A7.708,7.708,0,0,0,31.6,23.914V12.935A7.708,7.708,0,0,0,23.914,5.25Z" transform="translate(-5.25 -5.25)" fill="#231f20"/><path d="M29.209,13.794a1.647,1.647,0,1,1,1.647-1.647A1.643,1.643,0,0,1,29.209,13.794Z" transform="translate(-8.899 -6.109)" fill="#231f20"/><path d="M19.712,15.321a4.391,4.391,0,1,1-4.391,4.391,4.4,4.4,0,0,1,4.391-4.391m0-2.2A6.587,6.587,0,1,0,26.3,19.712a6.589,6.589,0,0,0-6.587-6.587Z" transform="translate(-6.538 -6.538)" fill="#231f20"/></g></svg>